<?xml version="1.0" encoding="UTF-8"?>
<svg id="Layer_1" xmlns="http://www.w3.org/2000/svg" version="1.1" xmlns:xlink="http://www.w3.org/1999/xlink" viewBox="0 0 656.49 248.43">
  <!-- Generator: Adobe Illustrator 30.3.0, SVG Export Plug-In . SVG Version: 2.1.3 Build 182)  -->
  <defs>
    <style>
      .st0 {
        fill: url(#linear-gradient2);
      }

      .st1 {
        fill: #fff;
      }

      .st2 {
        fill: url(#linear-gradient1);
      }

      .st3 {
        fill: url(#linear-gradient8);
      }

      .st4 {
        fill: url(#linear-gradient7);
      }

      .st5 {
        fill: url(#linear-gradient4);
      }

      .st6 {
        fill: url(#linear-gradient5);
      }

      .st7 {
        fill: url(#linear-gradient3);
      }

      .st8 {
        fill: url(#linear-gradient6);
      }

      .st9 {
        fill: url(#linear-gradient);
      }
    </style>
    <linearGradient id="linear-gradient" x1="0" y1="128.89" x2="93.31" y2="128.89" gradientUnits="userSpaceOnUse">
      <stop offset="0" stop-color="#734a9e"/>
      <stop offset="1" stop-color="#c3afd5"/>
    </linearGradient>
    <linearGradient id="linear-gradient1" x1="54.97" y1="222.5" x2="104.1" y2="150.21" gradientUnits="userSpaceOnUse">
      <stop offset="0" stop-color="#d13966"/>
      <stop offset="1" stop-color="#f3979e"/>
    </linearGradient>
    <linearGradient id="linear-gradient2" x1="109.61" y1="241.6" x2="116.63" y2="154.92" gradientUnits="userSpaceOnUse">
      <stop offset="0" stop-color="#eb6944"/>
      <stop offset="1" stop-color="#f5a287"/>
    </linearGradient>
    <linearGradient id="linear-gradient3" x1="177.15" y1="245.91" x2="128.72" y2="153.61" gradientUnits="userSpaceOnUse">
      <stop offset="0" stop-color="#c9d42c"/>
      <stop offset="1" stop-color="#d9e7c4"/>
    </linearGradient>
    <linearGradient id="linear-gradient4" x1="30.46" y1="177.16" x2="96.43" y2="139.26" gradientUnits="userSpaceOnUse">
      <stop offset="0" stop-color="#d83a8b"/>
      <stop offset=".99" stop-color="#e484b6"/>
    </linearGradient>
    <linearGradient id="linear-gradient5" x1="19.95" y1="78.37" x2="95.75" y2="116.63" gradientUnits="userSpaceOnUse">
      <stop offset="0" stop-color="#5567b0"/>
      <stop offset="1" stop-color="#aab9dc"/>
    </linearGradient>
    <linearGradient id="linear-gradient6" x1="50.29" y1="36.82" x2="102.23" y2="104.55" gradientUnits="userSpaceOnUse">
      <stop offset="0" stop-color="#5393c3"/>
      <stop offset="1" stop-color="#94c7e3"/>
    </linearGradient>
    <linearGradient id="linear-gradient7" x1="97.15" y1="14.64" x2="112.94" y2="101.32" gradientUnits="userSpaceOnUse">
      <stop offset="0" stop-color="#73be90"/>
      <stop offset="1" stop-color="#cee5d9"/>
    </linearGradient>
    <linearGradient id="linear-gradient8" x1="153.57" y1="3.75" x2="125.84" y2="100.26" gradientUnits="userSpaceOnUse">
      <stop offset="0" stop-color="#7cbb42"/>
      <stop offset="1" stop-color="#d9e7c4"/>
    </linearGradient>
  </defs>
  <g>
    <path class="st9" d="M21.57,146.83c-11.22,2.08-21.57-6.53-21.57-17.94h0c0-11.41,10.35-20.02,21.57-17.94l68.81,13.74c3.86.77,3.91,6.28.06,7.11l-68.88,15.02Z"/>
    <path class="st2" d="M79.6,216.08c-4.19,9.77-16.21,13.38-25.09,7.52h0c-8.88-5.85-10.31-18.31-2.98-26.02l48.93-48.05c2.95-2.89,7.73.39,6.09,4.18l-26.95,62.37Z"/>
    <path class="st0" d="M128.26,223.72c1.14,10.83-7.82,20.04-18.67,19.21h0c-10.86-.83-18.3-11.29-15.54-21.82l19.01-65.03c1.16-3.96,6.92-3.47,7.39.62l7.8,67.02Z"/>
    <path class="st7" d="M183.65,213.84c8.2,10.37,4.9,25.64-6.85,31.71h0c-11.75,6.06-26.11-.1-29.81-12.79l-21.02-77.15c-.96-3.52,3.54-5.89,5.9-3.1l51.78,61.33Z"/>
    <path class="st5" d="M53.17,181.13c-7.24,5.85-18.01,3.72-22.48-4.43h0c-4.48-8.16-.49-18.38,8.33-21.35l53.82-17.14c3.77-1.2,6.46,3.65,3.45,6.21l-43.12,36.71Z"/>
    <path class="st6" d="M29.3,101.09c-9.66-3.02-14.26-14.02-9.63-23.01h0c4.63-9,16.26-11.64,24.33-5.52l50.53,39.29c3.47,2.7.67,8.22-3.56,7l-61.67-17.75Z"/>
    <path class="st8" d="M47.27,60.76c-7.69-7.37-6.87-19.9,1.72-26.21h0c8.59-6.31,20.78-3.35,25.52,6.19l29.63,61.78c1.79,3.73-2.87,7.2-5.93,4.42l-50.94-46.19Z"/>
    <path class="st4" d="M83.95,36.47c-3.71-9.99,2.48-20.91,12.96-22.85h0c10.48-1.94,20.17,6.03,20.29,16.68l.18,68.03c.01,4.19-5.76,5.34-7.35,1.47l-26.07-63.32Z"/>
    <path class="st3" d="M127.14,19.7c1.09-13.44,14.17-22.54,27.15-18.9h0c12.98,3.65,19.4,18.23,13.34,30.27l-37.68,69.9c-2,3.72-7.65,2.11-7.41-2.1l4.6-79.17Z"/>
  </g>
  <g>
    <path class="st1" d="M179.2,56.3c4.67-9.06,11.02-16.04,19.04-20.92,8.02-4.88,16.98-7.32,26.88-7.32,8.65,0,16.21,1.75,22.7,5.23,6.49,3.49,11.68,7.88,15.59,13.18v-16.53h29.5v115.9h-29.5v-16.95c-3.77,5.44-8.96,9.94-15.59,13.49-6.62,3.56-14.26,5.33-22.91,5.33-9.76,0-18.65-2.51-26.67-7.53-8.02-5.02-14.37-12.1-19.04-21.23-4.67-9.13-7.01-19.63-7.01-31.48s2.33-22.1,7.01-31.17ZM259.22,69.58c-2.79-5.09-6.56-9-11.3-11.71-4.74-2.72-9.83-4.08-15.27-4.08s-10.46,1.33-15.06,3.98c-4.6,2.65-8.34,6.52-11.19,11.61-2.86,5.09-4.29,11.12-4.29,18.1s1.43,13.08,4.29,18.3c2.86,5.23,6.62,9.24,11.3,12.03,4.67,2.79,9.66,4.18,14.96,4.18s10.53-1.36,15.27-4.08c4.74-2.72,8.51-6.62,11.3-11.72,2.79-5.09,4.18-11.19,4.18-18.3s-1.4-13.21-4.18-18.31Z"/>
    <path class="st1" d="M366.44,33.39c6.62-3.56,14.19-5.33,22.7-5.33,9.9,0,18.86,2.44,26.88,7.32,8.02,4.88,14.36,11.82,19.04,20.82,4.67,9,7.01,19.42,7.01,31.28s-2.34,22.35-7.01,31.48c-4.67,9.14-11.02,16.21-19.04,21.23-8.02,5.02-16.98,7.53-26.88,7.53-8.51,0-16-1.75-22.49-5.23-6.49-3.48-11.75-7.88-15.79-13.18v71.76h-29.29V29.94h29.29v16.74c3.77-5.3,8.96-9.73,15.59-13.28ZM407.86,69.37c-2.86-5.09-6.62-8.96-11.29-11.61-4.68-2.65-9.73-3.98-15.17-3.98s-10.29,1.36-14.96,4.08c-4.68,2.72-8.44,6.66-11.3,11.82-2.86,5.16-4.29,11.23-4.29,18.2s1.43,13.04,4.29,18.2c2.86,5.16,6.62,9.1,11.3,11.82,4.67,2.72,9.65,4.08,14.96,4.08s10.49-1.39,15.17-4.18c4.67-2.79,8.44-6.76,11.29-11.92,2.86-5.16,4.29-11.3,4.29-18.41s-1.43-13-4.29-18.1Z"/>
    <path class="st1" d="M497.5,54v56.07c0,3.91.94,6.73,2.82,8.47,1.88,1.75,5.05,2.62,9.52,2.62h13.6v24.69h-18.41c-24.69,0-37.03-11.99-37.03-35.98v-55.86h-13.81v-24.06h13.81V1.28h29.5v28.66h25.94v24.06h-25.94Z"/>
    <path class="st1" d="M565.91,140.29c-8.93-4.95-15.94-11.96-21.02-21.02-5.09-9.06-7.64-19.52-7.64-31.38s2.62-22.31,7.85-31.38c5.23-9.06,12.38-16.07,21.44-21.03,9.06-4.95,19.18-7.43,30.34-7.43s21.27,2.48,30.33,7.43c9.06,4.95,16.21,11.96,21.44,21.03,5.23,9.07,7.85,19.53,7.85,31.38s-2.69,22.32-8.05,31.38c-5.37,9.07-12.62,16.08-21.76,21.02-9.14,4.95-19.35,7.43-30.65,7.43s-21.2-2.47-30.12-7.43ZM610.99,118.33c4.67-2.58,8.4-6.45,11.19-11.61,2.79-5.16,4.18-11.43,4.18-18.83,0-11.02-2.9-19.49-8.68-25.42-5.79-5.93-12.87-8.89-21.23-8.89s-15.38,2.96-21.02,8.89c-5.65,5.93-8.47,14.4-8.47,25.42s2.75,19.49,8.26,25.42c5.51,5.93,12.45,8.89,20.81,8.89,5.3,0,10.28-1.29,14.96-3.87Z"/>
  </g>
  <g>
    <path class="st1" d="M408.91,172.43v27.74h-4.55v-19l-8.46,19h-3.15l-8.5-19v19h-4.55v-27.74h4.91l9.74,21.76,9.7-21.76h4.87Z"/>
    <path class="st1" d="M415.56,183.2c.92-1.7,2.17-3.03,3.75-3.97s3.33-1.42,5.25-1.42c1.73,0,3.24.34,4.53,1.02s2.32,1.52,3.09,2.54v-3.19h4.59v22h-4.59v-3.27c-.77,1.04-1.82,1.9-3.15,2.59-1.33.69-2.85,1.04-4.55,1.04-1.89,0-3.62-.49-5.19-1.46-1.57-.97-2.81-2.33-3.73-4.07-.92-1.74-1.38-3.72-1.38-5.93s.46-4.17,1.38-5.87ZM431.25,185.2c-.63-1.12-1.44-1.97-2.46-2.55-1.01-.59-2.1-.88-3.27-.88s-2.26.29-3.27.86c-1.01.57-1.83,1.41-2.46,2.51-.63,1.11-.94,2.42-.94,3.93s.31,2.85.94,3.99c.62,1.14,1.45,2.02,2.47,2.61s2.11.9,3.25.9,2.26-.29,3.27-.88c1.01-.58,1.83-1.44,2.46-2.57.62-1.13.94-2.46.94-3.97s-.31-2.83-.94-3.95Z"/>
    <path class="st1" d="M459.31,178.89c1.37.72,2.44,1.78,3.21,3.19.77,1.41,1.16,3.11,1.16,5.11v12.97h-4.51v-12.29c0-1.97-.49-3.48-1.48-4.53-.98-1.05-2.33-1.58-4.03-1.58s-3.05.53-4.05,1.58c-1,1.05-1.5,2.56-1.5,4.53v12.29h-4.55v-22h4.55v2.52c.74-.91,1.7-1.61,2.85-2.12,1.16-.5,2.39-.76,3.69-.76,1.73,0,3.28.36,4.65,1.08Z"/>
    <path class="st1" d="M470.13,183.2c.92-1.7,2.17-3.03,3.75-3.97s3.33-1.42,5.25-1.42c1.73,0,3.24.34,4.53,1.02s2.32,1.52,3.09,2.54v-3.19h4.59v22h-4.59v-3.27c-.77,1.04-1.82,1.9-3.15,2.59-1.33.69-2.85,1.04-4.55,1.04-1.89,0-3.62-.49-5.19-1.46-1.57-.97-2.81-2.33-3.73-4.07-.92-1.74-1.38-3.72-1.38-5.93s.46-4.17,1.38-5.87ZM485.82,185.2c-.63-1.12-1.44-1.97-2.46-2.55-1.01-.59-2.1-.88-3.27-.88s-2.26.29-3.27.86c-1.01.57-1.83,1.41-2.46,2.51-.63,1.11-.94,2.42-.94,3.93s.31,2.85.94,3.99c.62,1.14,1.45,2.02,2.47,2.61s2.11.9,3.25.9,2.26-.29,3.27-.88c1.01-.58,1.83-1.44,2.46-2.57.62-1.13.94-2.46.94-3.97s-.31-2.83-.94-3.95Z"/>
    <path class="st1" d="M511.52,178.83c1.32.68,2.35,1.52,3.09,2.54v-3.19h4.59v22.36c0,2.02-.43,3.83-1.28,5.41-.85,1.58-2.08,2.83-3.69,3.73-1.61.9-3.53,1.36-5.77,1.36-2.98,0-5.46-.7-7.42-2.1-1.97-1.4-3.09-3.29-3.35-5.69h4.51c.35,1.14,1.08,2.07,2.22,2.77,1.13.71,2.48,1.06,4.05,1.06,1.84,0,3.32-.56,4.45-1.68,1.13-1.12,1.7-2.74,1.7-4.87v-3.67c-.77,1.04-1.82,1.91-3.13,2.61-1.32.71-2.81,1.06-4.49,1.06-1.92,0-3.67-.49-5.25-1.46s-2.83-2.33-3.75-4.07c-.92-1.74-1.38-3.72-1.38-5.93s.46-4.17,1.38-5.87,2.17-3.03,3.75-3.97,3.33-1.42,5.25-1.42c1.7,0,3.21.34,4.53,1.02ZM513.68,185.2c-.63-1.12-1.44-1.97-2.46-2.55-1.01-.59-2.1-.88-3.27-.88s-2.26.29-3.27.86c-1.01.57-1.83,1.41-2.46,2.51-.63,1.11-.94,2.42-.94,3.93s.31,2.85.94,3.99c.62,1.14,1.45,2.02,2.47,2.61s2.11.9,3.25.9,2.26-.29,3.27-.88c1.01-.58,1.83-1.44,2.46-2.57.62-1.13.94-2.46.94-3.97s-.31-2.83-.94-3.95Z"/>
    <path class="st1" d="M545.99,190.87h-16.81c.13,1.76.78,3.17,1.96,4.23,1.17,1.07,2.61,1.6,4.31,1.6,2.45,0,4.18-1.02,5.19-3.07h4.91c-.67,2.02-1.87,3.68-3.61,4.97-1.74,1.29-3.91,1.94-6.49,1.94-2.1,0-3.99-.47-5.65-1.42-1.66-.94-2.97-2.28-3.91-3.99-.95-1.72-1.42-3.71-1.42-5.97s.46-4.25,1.38-5.97c.92-1.72,2.21-3.04,3.87-3.97,1.66-.93,3.57-1.4,5.73-1.4s3.92.45,5.55,1.36c1.62.91,2.89,2.18,3.79,3.81.9,1.64,1.36,3.52,1.36,5.65,0,.83-.05,1.57-.16,2.24ZM541.4,187.2c-.03-1.68-.62-3.02-1.8-4.03-1.17-1.01-2.62-1.52-4.35-1.52-1.57,0-2.91.5-4.03,1.5-1.12,1-1.78,2.35-2,4.05h12.17Z"/>
    <path class="st1" d="M582.7,178.89c1.37.72,2.45,1.78,3.23,3.19.79,1.41,1.18,3.11,1.18,5.11v12.97h-4.51v-12.29c0-1.97-.49-3.48-1.48-4.53-.99-1.05-2.33-1.58-4.03-1.58s-3.05.53-4.05,1.58c-1,1.05-1.5,2.56-1.5,4.53v12.29h-4.51v-12.29c0-1.97-.49-3.48-1.48-4.53-.98-1.05-2.33-1.58-4.03-1.58s-3.05.53-4.05,1.58c-1,1.05-1.5,2.56-1.5,4.53v12.29h-4.55v-22h4.55v2.52c.74-.91,1.69-1.61,2.83-2.12,1.14-.5,2.37-.76,3.67-.76,1.76,0,3.33.37,4.71,1.12s2.45,1.82,3.19,3.23c.66-1.33,1.7-2.39,3.11-3.17,1.41-.78,2.93-1.18,4.55-1.18,1.73,0,3.28.36,4.65,1.08Z"/>
    <path class="st1" d="M613.7,190.87h-16.81c.13,1.76.78,3.17,1.96,4.23,1.17,1.07,2.61,1.6,4.31,1.6,2.45,0,4.18-1.02,5.19-3.07h4.91c-.67,2.02-1.87,3.68-3.61,4.97-1.74,1.29-3.91,1.94-6.49,1.94-2.1,0-3.99-.47-5.65-1.42-1.66-.94-2.97-2.28-3.91-3.99-.95-1.72-1.42-3.71-1.42-5.97s.46-4.25,1.38-5.97c.92-1.72,2.21-3.04,3.87-3.97,1.66-.93,3.57-1.4,5.73-1.4s3.92.45,5.55,1.36c1.62.91,2.89,2.18,3.79,3.81.9,1.64,1.36,3.52,1.36,5.65,0,.83-.05,1.57-.16,2.24ZM609.11,187.2c-.03-1.68-.62-3.02-1.8-4.03-1.17-1.01-2.62-1.52-4.35-1.52-1.57,0-2.91.5-4.03,1.5-1.12,1-1.78,2.35-2,4.05h12.17Z"/>
    <path class="st1" d="M634.87,178.89c1.37.72,2.44,1.78,3.21,3.19.77,1.41,1.16,3.11,1.16,5.11v12.97h-4.51v-12.29c0-1.97-.49-3.48-1.48-4.53-.98-1.05-2.33-1.58-4.03-1.58s-3.05.53-4.05,1.58c-1,1.05-1.5,2.56-1.5,4.53v12.29h-4.55v-22h4.55v2.52c.74-.91,1.7-1.61,2.85-2.12,1.16-.5,2.39-.76,3.69-.76,1.73,0,3.28.36,4.65,1.08Z"/>
    <path class="st1" d="M651.14,181.89v12.18c0,.83.19,1.42.58,1.78.39.36,1.04.54,1.98.54h2.79v3.79h-3.59c-2.05,0-3.62-.48-4.71-1.44-1.09-.96-1.64-2.51-1.64-4.67v-12.18h-2.59v-3.71h2.59v-5.47h4.59v5.47h5.35v3.71h-5.35Z"/>
    <path class="st1" d="M491.71,247.37c-1.49-.65-2.66-1.58-3.51-2.77-.85-1.2-1.28-2.59-1.28-4.19h4.87c.11,1.2.58,2.18,1.42,2.95.84.77,2.02,1.16,3.53,1.16s2.79-.38,3.67-1.14c.88-.76,1.32-1.74,1.32-2.93,0-.93-.27-1.69-.82-2.28-.54-.58-1.22-1.04-2.04-1.36-.81-.32-1.94-.67-3.37-1.04-1.81-.48-3.28-.96-4.41-1.46-1.13-.49-2.1-1.26-2.89-2.29s-1.2-2.42-1.2-4.15c0-1.6.4-2.99,1.2-4.19.8-1.2,1.92-2.12,3.35-2.75,1.44-.64,3.1-.96,4.99-.96,2.69,0,4.89.67,6.61,2.02,1.72,1.34,2.67,3.19,2.85,5.53h-5.03c-.08-1.01-.56-1.88-1.44-2.59s-2.04-1.08-3.47-1.08c-1.3,0-2.37.33-3.19,1-.83.67-1.24,1.62-1.24,2.87,0,.85.26,1.55.78,2.1.52.55,1.18.98,1.98,1.3s1.89.67,3.27,1.04c1.84.51,3.33,1.01,4.49,1.52,1.16.51,2.14,1.28,2.95,2.33.81,1.05,1.22,2.46,1.22,4.21,0,1.41-.38,2.74-1.14,3.99-.76,1.25-1.86,2.25-3.31,3.01s-3.16,1.14-5.13,1.14c-1.86,0-3.54-.33-5.03-.98Z"/>
    <path class="st1" d="M532.5,238.77h-16.81c.13,1.76.78,3.17,1.96,4.23,1.17,1.07,2.61,1.6,4.31,1.6,2.45,0,4.18-1.02,5.19-3.07h4.91c-.67,2.02-1.87,3.68-3.61,4.97-1.74,1.29-3.91,1.94-6.49,1.94-2.1,0-3.99-.47-5.65-1.42-1.66-.94-2.97-2.28-3.91-3.99-.95-1.72-1.42-3.71-1.42-5.97s.46-4.25,1.38-5.97c.92-1.72,2.21-3.04,3.87-3.97,1.66-.93,3.57-1.4,5.73-1.4s3.92.45,5.55,1.36c1.62.91,2.89,2.18,3.79,3.81.9,1.64,1.36,3.52,1.36,5.65,0,.83-.05,1.57-.16,2.24ZM527.91,235.1c-.03-1.68-.62-3.02-1.8-4.03-1.17-1.01-2.62-1.52-4.35-1.52-1.57,0-2.91.5-4.03,1.5-1.12,1-1.78,2.35-2,4.05h12.17Z"/>
    <path class="st1" d="M545.14,226.66c1.1-.62,2.42-.94,3.93-.94v4.71h-1.16c-1.78,0-3.13.45-4.05,1.36-.92.91-1.38,2.47-1.38,4.71v11.58h-4.55v-22h4.55v3.19c.67-1.12,1.55-1.99,2.65-2.62Z"/>
    <path class="st1" d="M562.56,244l6.23-17.92h4.83l-8.38,22h-5.43l-8.34-22h4.87l6.23,17.92Z"/>
    <path class="st1" d="M578.09,222.33c-.56-.56-.84-1.25-.84-2.08s.28-1.52.84-2.08c.56-.56,1.25-.84,2.08-.84s1.48.28,2.04.84c.56.56.84,1.25.84,2.08s-.28,1.52-.84,2.08c-.56.56-1.24.84-2.04.84s-1.52-.28-2.08-.84ZM582.4,226.08v22h-4.55v-22h4.55Z"/>
    <path class="st1" d="M589.05,231.09c.92-1.72,2.19-3.04,3.81-3.97,1.62-.93,3.49-1.4,5.59-1.4,2.66,0,4.86.63,6.61,1.9,1.74,1.26,2.92,3.07,3.53,5.41h-4.91c-.4-1.09-1.04-1.94-1.92-2.55s-1.98-.92-3.31-.92c-1.86,0-3.35.66-4.45,1.98-1.11,1.32-1.66,3.16-1.66,5.53s.55,4.22,1.66,5.55c1.1,1.33,2.59,2,4.45,2,2.63,0,4.38-1.16,5.23-3.47h4.91c-.64,2.24-1.84,4.01-3.59,5.33-1.76,1.32-3.94,1.98-6.55,1.98-2.1,0-3.97-.47-5.59-1.42-1.62-.94-2.89-2.28-3.81-3.99-.92-1.72-1.38-3.71-1.38-5.97s.46-4.25,1.38-5.97Z"/>
    <path class="st1" d="M633.94,238.77h-16.81c.13,1.76.78,3.17,1.96,4.23,1.17,1.07,2.61,1.6,4.31,1.6,2.45,0,4.18-1.02,5.19-3.07h4.91c-.67,2.02-1.87,3.68-3.61,4.97-1.74,1.29-3.91,1.94-6.49,1.94-2.1,0-3.99-.47-5.65-1.42-1.66-.94-2.97-2.28-3.91-3.99-.95-1.72-1.42-3.71-1.42-5.97s.46-4.25,1.38-5.97c.92-1.72,2.21-3.04,3.87-3.97,1.66-.93,3.57-1.4,5.73-1.4s3.92.45,5.55,1.36c1.62.91,2.89,2.18,3.79,3.81.9,1.64,1.36,3.52,1.36,5.65,0,.83-.05,1.57-.16,2.24ZM629.34,235.1c-.03-1.68-.62-3.02-1.8-4.03-1.17-1.01-2.62-1.52-4.35-1.52-1.57,0-2.91.5-4.03,1.5-1.12,1-1.78,2.35-2,4.05h12.17Z"/>
    <path class="st1" d="M642.7,247.49c-1.37-.62-2.46-1.48-3.25-2.55-.8-1.08-1.22-2.28-1.28-3.61h4.71c.08.93.53,1.71,1.34,2.34s1.83.94,3.05.94,2.27-.25,2.97-.74c.71-.49,1.06-1.12,1.06-1.9,0-.83-.39-1.44-1.18-1.84s-2.03-.84-3.73-1.32c-1.65-.45-2.99-.89-4.03-1.32-1.04-.42-1.94-1.08-2.7-1.96-.76-.88-1.14-2.04-1.14-3.47,0-1.17.35-2.24,1.04-3.21.69-.97,1.68-1.74,2.97-2.29,1.29-.56,2.77-.84,4.45-.84,2.5,0,4.52.63,6.05,1.9,1.53,1.26,2.35,2.99,2.46,5.17h-4.55c-.08-.98-.48-1.77-1.2-2.36-.72-.58-1.69-.88-2.91-.88s-2.12.23-2.75.68-.96,1.05-.96,1.8c0,.59.21,1.08.64,1.48.43.4.94.71,1.56.94.61.23,1.52.51,2.71.86,1.6.43,2.91.86,3.93,1.3,1.02.44,1.91,1.08,2.65,1.94.75.85,1.13,1.98,1.16,3.39,0,1.25-.35,2.37-1.04,3.35-.69.99-1.67,1.76-2.93,2.32-1.26.56-2.75.84-4.45.84s-3.28-.31-4.65-.94Z"/>
  </g>
</svg>