<svg width="1200" height="900" viewBox="0 0 1200 900" fill="none" xmlns="http://www.w3.org/2000/svg">
  <rect width="1200" height="900" rx="36" fill="#F8FAFC"/>
  <rect x="70" y="70" width="1060" height="760" rx="30" fill="url(#paint0_linear)"/>
  <circle cx="220" cy="220" r="80" fill="#DBEAFE"/>
  <circle cx="980" cy="190" r="64" fill="#E0F2FE"/>
  <circle cx="930" cy="710" r="88" fill="#DCFCE7"/>
  <rect x="160" y="500" width="420" height="220" rx="22" fill="white" fill-opacity="0.95"/>
  <rect x="620" y="300" width="420" height="320" rx="22" fill="white" fill-opacity="0.92"/>
  <rect x="200" y="548" width="210" height="14" rx="7" fill="#94A3B8"/>
  <rect x="200" y="580" width="300" height="12" rx="6" fill="#CBD5E1"/>
  <rect x="200" y="608" width="260" height="12" rx="6" fill="#CBD5E1"/>
  <rect x="200" y="642" width="140" height="34" rx="17" fill="#2563EB"/>
  <rect x="660" y="352" width="180" height="14" rx="7" fill="#94A3B8"/>
  <rect x="660" y="386" width="320" height="12" rx="6" fill="#CBD5E1"/>
  <rect x="660" y="415" width="260" height="12" rx="6" fill="#CBD5E1"/>
  <rect x="660" y="460" width="340" height="112" rx="18" fill="#EFF6FF"/>
  <circle cx="736" cy="516" r="38" fill="#BFDBFE"/>
  <rect x="786" y="490" width="180" height="12" rx="6" fill="#93C5FD"/>
  <rect x="786" y="516" width="140" height="10" rx="5" fill="#BFDBFE"/>
  <rect x="786" y="540" width="104" height="10" rx="5" fill="#BFDBFE"/>
  <path d="M444 266C444 227.34 475.34 196 514 196H680C718.66 196 750 227.34 750 266V286H444V266Z" fill="#1D4ED8" fill-opacity="0.9"/>
  <rect x="430" y="286" width="334" height="28" rx="14" fill="#1E40AF"/>
  <circle cx="514" cy="250" r="18" fill="#BFDBFE"/>
  <circle cx="680" cy="250" r="18" fill="#BFDBFE"/>
  <defs>
    <linearGradient id="paint0_linear" x1="70" y1="70" x2="1130" y2="830" gradientUnits="userSpaceOnUse">
      <stop stop-color="#E0F2FE"/>
      <stop offset="1" stop-color="#DBEAFE"/>
    </linearGradient>
  </defs>
</svg>
