<svg width="900" height="700" viewBox="0 0 900 700" fill="none" xmlns="http://www.w3.org/2000/svg">
  <rect width="900" height="700" rx="28" fill="#F8FAFC"/>
  <rect x="50" y="50" width="800" height="600" rx="24" fill="url(#paint0_linear)"/>
  <rect x="120" y="130" width="260" height="450" rx="20" fill="white"/>
  <rect x="420" y="130" width="360" height="200" rx="20" fill="white" fill-opacity="0.96"/>
  <rect x="420" y="360" width="360" height="220" rx="20" fill="white" fill-opacity="0.96"/>
  <circle cx="250" cy="220" r="54" fill="#BFDBFE"/>
  <rect x="180" y="300" width="140" height="12" rx="6" fill="#93C5FD"/>
  <rect x="160" y="328" width="180" height="10" rx="5" fill="#BFDBFE"/>
  <rect x="160" y="350" width="130" height="10" rx="5" fill="#BFDBFE"/>
  <rect x="160" y="470" width="180" height="42" rx="14" fill="#2563EB"/>
  <rect x="460" y="172" width="180" height="12" rx="6" fill="#94A3B8"/>
  <rect x="460" y="202" width="280" height="10" rx="5" fill="#CBD5E1"/>
  <rect x="460" y="226" width="220" height="10" rx="5" fill="#CBD5E1"/>
  <circle cx="684" cy="236" r="28" fill="#DBEAFE"/>
  <path d="M250 274C250 332 300 380 360 380H420" stroke="#3B82F6" stroke-width="6" stroke-linecap="round"/>
  <path d="M250 274C250 332 200 380 140 380H120" stroke="#60A5FA" stroke-width="6" stroke-linecap="round"/>
  <rect x="460" y="404" width="120" height="110" rx="14" fill="#EFF6FF"/>
  <rect x="598" y="404" width="140" height="16" rx="8" fill="#93C5FD"/>
  <rect x="598" y="434" width="116" height="12" rx="6" fill="#BFDBFE"/>
  <rect x="598" y="458" width="96" height="12" rx="6" fill="#BFDBFE"/>
  <circle cx="520" cy="460" r="28" fill="#BFDBFE"/>
  <defs>
    <linearGradient id="paint0_linear" x1="50" y1="50" x2="850" y2="650" gradientUnits="userSpaceOnUse">
      <stop stop-color="#E0F2FE"/>
      <stop offset="1" stop-color="#DCFCE7"/>
    </linearGradient>
  </defs>
</svg>
